<?xml version="1.0" encoding="UTF-8"?>
<!DOCTYPE svg PUBLIC "-//W3C//DTD SVG 1.1//EN" "http://www.w3.org/Graphics/SVG/1.1/DTD/svg11.dtd">
<!-- Creator: CorelDRAW X5 -->
<svg xmlns="http://www.w3.org/2000/svg" xml:space="preserve" width="2048px" height="2048px" style="shape-rendering:geometricPrecision; text-rendering:geometricPrecision; image-rendering:optimizeQuality; fill-rule:evenodd; clip-rule:evenodd"
viewBox="0 0 2048 2048"
 xmlns:xlink="http://www.w3.org/1999/xlink">
 <defs>
  <style type="text/css">
   <![CDATA[
    .str0 {stroke:#424242;stroke-width:2.08347}
    .fil5 {fill:none}
    .fil1 {fill:#8BC34A}
    .fil2 {fill:#F1F8E9}
    .fil4 {fill:#F43C3C}
    .fil3 {fill:#FF5252}
    .fil0 {fill:#4D4D4D;fill-rule:nonzero}
   ]]>
  </style>
 </defs>
 <g id="Layer_x0020_1">
  <metadata id="CorelCorpID_0Corel-Layer"/>
  <g id="_359464264">
   <g>
    <path class="fil0 str0" d="M673 924l428 0c9,21 18,43 27,64l-437 0 -47 79 -298 497 1360 0 -332 -576 -217 0c9,-21 18,-43 27,-64l208 0 18 0 9 16 369 640 28 48 -55 0 -1472 0 -56 0 29 -48 384 -640 9 -16 18 0z"/>
    <path class="fil1" d="M691 1200l286 -68c-23,-50 -43,-93 -65,-144l-222 0 -47 78 47 134z"/>
    <path class="fil1" d="M1005 1190l-292 70 75 212 773 -161 -187 -324 -69 0c-26,61 -52,117 -80,177 -19,41 -32,73 -49,115 -18,44 -36,89 -66,88 -32,-2 -46,-35 -64,-79 -13,-31 -28,-67 -41,-98z"/>
    <polygon class="fil1" points="752,1564 601,1137 345,1564 "/>
    <polygon class="fil1" points="1594,1370 809,1534 819,1564 1705,1564 "/>
    <path class="fil2" d="M601 1137l151 427 68 0 -11 -30 785 -164 -34 -58 -773 161 -75 -212 292 -70c-4,-10 -9,-20 -14,-31 -25,-55 -53,-114 -77,-171 0,0 0,0 0,0 22,51 41,93 65,144l-286 68 -47 -134 0 0 -42 71z"/>
   </g>
   <path class="fil3" d="M1109 420c82,0 156,33 209,87 54,54 87,128 87,209 0,37 -24,109 -58,192 -32,80 -75,173 -113,256 -25,53 -42,97 -56,129 -24,60 -37,90 -68,91 -32,1 -45,-30 -70,-92 -13,-31 -30,-72 -54,-125 -39,-84 -82,-178 -114,-258 -34,-84 -58,-156 -58,-194 0,-82 33,-156 87,-209 54,-54 128,-87 209,-87zm0 166c32,0 62,13 83,34 21,21 34,51 34,83 0,32 -13,62 -34,83 -21,21 -51,34 -83,34 -32,0 -62,-13 -83,-34 -21,-21 -34,-51 -34,-83 0,-32 13,-62 34,-83 21,-21 51,-34 83,-34z"/>
   <path class="fil4" d="M1109 420l0 0 0 166 0 0c-32,0 -62,13 -83,34 -21,21 -34,51 -34,83 0,32 13,62 34,83 21,21 51,34 83,34l0 0 0 564c-31,0 -44,-31 -69,-92 -13,-31 -30,-72 -54,-125 -39,-84 -82,-178 -114,-258 -34,-84 -58,-156 -58,-194 0,-82 33,-156 87,-209 54,-54 128,-87 209,-87z"/>
  </g>
  <rect class="fil5" width="2048" height="2048"/>
 </g>
</svg>
